<?xml version="1.0" ?><!DOCTYPE svg  PUBLIC '-//W3C//DTD SVG 1.1//EN'  'http://www.w3.org/Graphics/SVG/1.1/DTD/svg11.dtd'><svg height="512pt" version="1.1" viewBox="0 0 512 512" width="512pt" xmlns="http://www.w3.org/2000/svg"><g id="#04cc47ff"><path d=" M 204.90 14.00 C 239.09 9.47 274.31 12.75 307.00 23.78 L 307.69 24.26 C 313.62 25.91 319.41 28.03 325.29 29.84 L 325.81 30.27 C 329.08 33.32 333.45 34.60 337.31 36.69 C 363.40 50.21 386.99 68.61 406.31 90.76 C 444.72 134.34 466.32 192.01 466.97 250.02 C 467.61 291.18 458.08 332.53 439.00 369.04 C 410.32 424.49 359.25 468.52 299.12 486.20 C 283.77 490.94 267.86 493.44 251.94 495.38 C 241.31 496.15 230.63 496.01 219.98 495.57 C 212.26 495.28 204.80 492.68 197.05 492.72 C 171.34 487.54 146.01 479.09 123.30 465.75 C 86.39 444.67 55.69 413.16 34.87 376.16 C 12.73 337.06 1.82 291.82 3.11 246.93 C 4.18 203.82 16.59 160.99 39.12 124.19 C 57.79 93.58 83.36 67.15 113.55 47.76 C 141.07 30.10 172.46 18.35 204.90 14.00 M 128.28 96.25 C 122.29 97.86 118.10 103.82 118.08 109.95 C 117.76 139.96 118.50 169.97 118.28 199.98 C 118.17 230.64 118.65 261.29 118.58 291.95 C 119.47 315.53 126.17 339.09 139.08 358.94 C 155.38 384.17 180.41 403.99 209.27 412.72 C 231.10 419.68 254.79 421.04 277.12 415.66 C 311.32 408.12 341.84 385.78 359.65 355.68 C 372.05 334.72 378.24 310.34 378.52 286.05 C 377.93 266.63 373.83 247.16 365.49 229.55 C 347.82 192.88 312.48 164.49 272.12 157.45 C 247.69 153.11 221.98 155.57 198.94 164.85 C 182.11 172.02 166.91 182.82 154.28 196.03 C 154.04 167.35 154.27 138.67 154.14 110.00 C 154.16 106.29 152.70 102.61 150.13 99.94 C 144.48 94.47 135.47 94.03 128.28 96.25 Z" fill="#04cc47" opacity="1.00"/><path d=" M 235.63 192.84 C 256.84 189.91 279.12 194.26 297.38 205.54 C 312.90 215.42 325.68 229.71 333.61 246.32 C 342.60 265.77 345.04 288.21 339.99 309.07 C 334.53 333.02 319.27 354.36 298.81 367.84 C 279.47 380.49 255.24 385.20 232.52 381.22 C 196.56 375.34 165.72 346.39 157.23 311.01 C 149.75 281.42 156.41 247.86 177.13 224.99 C 191.72 207.44 212.97 195.70 235.63 192.84 M 188.50 259.73 C 182.18 261.28 176.12 264.92 172.69 270.57 C 169.30 276.29 167.34 283.19 168.67 289.83 C 169.82 295.58 172.18 301.30 176.43 305.47 C 181.90 310.62 189.60 313.31 197.09 312.81 C 206.34 312.18 215.02 306.25 218.60 297.64 C 223.70 287.26 221.43 273.92 213.13 265.87 C 206.65 259.90 197.04 257.40 188.50 259.73 Z" fill="#04cc47" opacity="1.00"/></g><g id="#04a33aff"><path d=" M 325.81 30.27 C 341.40 35.04 356.55 41.23 371.69 47.28 C 379.10 50.09 386.07 53.93 392.64 58.33 C 433.43 84.36 465.43 123.48 483.94 168.09 C 500.06 206.72 506.01 249.45 501.57 291.04 C 497.82 326.83 486.20 361.78 467.61 392.60 C 447.24 426.49 418.40 455.30 384.27 475.30 C 359.13 489.83 331.27 499.83 302.47 503.79 C 295.70 504.69 288.88 505.60 282.04 505.34 C 259.86 504.45 237.84 501.19 216.11 496.73 C 209.77 495.37 203.25 494.59 197.05 492.72 C 204.80 492.68 212.26 495.28 219.98 495.57 C 230.63 496.01 241.31 496.15 251.94 495.38 C 267.86 493.44 283.77 490.94 299.12 486.20 C 359.25 468.52 410.32 424.49 439.00 369.04 C 458.08 332.53 467.61 291.18 466.97 250.02 C 466.32 192.01 444.72 134.34 406.31 90.76 C 386.99 68.61 363.40 50.21 337.31 36.69 C 333.45 34.60 329.08 33.32 325.81 30.27 Z" fill="#04a33a" opacity="1.00"/></g><g id="#ffffffff"><path d=" M 128.28 96.25 C 135.47 94.03 144.48 94.47 150.13 99.94 C 152.70 102.61 154.16 106.29 154.14 110.00 C 154.27 138.67 154.04 167.35 154.28 196.03 C 166.91 182.82 182.11 172.02 198.94 164.85 C 221.98 155.57 247.69 153.11 272.12 157.45 C 312.48 164.49 347.82 192.88 365.49 229.55 C 373.83 247.16 377.93 266.63 378.52 286.05 C 378.24 310.34 372.05 334.72 359.65 355.68 C 341.84 385.78 311.32 408.12 277.12 415.66 C 254.79 421.04 231.10 419.68 209.27 412.72 C 180.41 403.99 155.38 384.17 139.08 358.94 C 126.17 339.09 119.47 315.53 118.58 291.95 C 118.65 261.29 118.17 230.64 118.28 199.98 C 118.50 169.97 117.76 139.96 118.08 109.95 C 118.10 103.82 122.29 97.86 128.28 96.25 M 235.63 192.84 C 212.97 195.70 191.72 207.44 177.13 224.99 C 156.41 247.86 149.75 281.42 157.23 311.01 C 165.72 346.39 196.56 375.34 232.52 381.22 C 255.24 385.20 279.47 380.49 298.81 367.84 C 319.27 354.36 334.53 333.02 339.99 309.07 C 345.04 288.21 342.60 265.77 333.61 246.32 C 325.68 229.71 312.90 215.42 297.38 205.54 C 279.12 194.26 256.84 189.91 235.63 192.84 Z" fill="#ffffff" opacity="1.00"/><path d=" M 188.50 259.73 C 197.04 257.40 206.65 259.90 213.13 265.87 C 221.43 273.92 223.70 287.26 218.60 297.64 C 215.02 306.25 206.34 312.18 197.09 312.81 C 189.60 313.31 181.90 310.62 176.43 305.47 C 172.18 301.30 169.82 295.58 168.67 289.83 C 167.34 283.19 169.30 276.29 172.69 270.57 C 176.12 264.92 182.18 261.28 188.50 259.73 Z" fill="#ffffff" opacity="1.00"/></g></svg>