<?xml version="1.0" ?><!DOCTYPE svg  PUBLIC '-//W3C//DTD SVG 1.1//EN'  'http://www.w3.org/Graphics/SVG/1.1/DTD/svg11.dtd'><svg height="512pt" version="1.1" viewBox="0 0 512 512" width="512pt" xmlns="http://www.w3.org/2000/svg"><g id="#3b5998ff"><path d=" M 160.05 24.93 C 198.20 11.16 240.17 8.51 279.88 16.50 C 293.55 19.16 306.77 23.68 319.88 28.25 C 323.29 30.30 326.98 31.78 330.60 33.38 C 372.85 53.36 408.60 86.46 432.35 126.66 C 461.02 174.67 472.36 232.53 464.68 287.86 C 459.59 325.99 445.50 362.92 423.64 394.60 C 405.09 421.29 381.35 444.53 353.61 461.58 C 325.14 479.56 292.42 490.63 258.98 494.32 C 243.39 496.60 227.44 496.53 211.83 494.43 C 210.21 494.36 208.59 494.48 206.97 494.56 C 197.42 493.67 188.22 490.59 178.90 488.46 C 127.73 475.39 82.06 443.45 50.92 400.97 C 27.32 369.02 11.81 331.22 5.89 291.96 C -1.02 246.70 4.51 199.53 22.24 157.27 C 47.28 96.71 97.98 46.73 160.05 24.93 M 212.61 111.61 C 198.56 124.32 192.13 143.56 191.52 162.12 C 191.38 175.81 191.51 189.50 191.46 203.19 C 180.45 203.33 169.42 202.95 158.42 203.38 C 158.71 222.92 158.45 242.47 158.55 262.01 C 169.52 262.03 180.49 262.01 191.46 262.02 C 191.50 317.80 191.41 373.59 191.50 429.38 C 214.51 429.41 237.52 429.23 260.52 429.47 C 260.88 373.66 260.56 317.83 260.68 262.02 C 275.87 262.05 291.06 261.95 306.26 262.07 C 308.45 242.48 310.34 222.85 312.38 203.24 C 295.14 203.24 277.91 203.25 260.68 203.24 C 260.66 191.84 260.68 180.45 260.67 169.05 C 260.63 164.67 261.52 159.93 264.70 156.69 C 267.58 153.67 271.87 152.52 275.95 152.61 C 288.15 152.61 300.35 152.62 312.55 152.61 C 312.55 133.58 312.56 114.54 312.54 95.51 C 294.67 95.48 276.80 95.29 258.93 95.35 C 242.34 95.58 225.07 100.17 212.61 111.61 Z" fill="#3b5998" opacity="1.00"/></g><g id="#2d4475ff"><path d=" M 319.88 28.25 C 332.45 31.94 344.69 36.76 356.94 41.39 C 365.61 44.95 374.53 47.98 382.83 52.38 C 424.04 75.85 457.38 112.42 478.04 155.02 C 497.94 195.74 506.08 241.99 501.96 287.09 C 498.74 323.27 487.51 358.74 469.12 390.07 C 448.67 425.03 419.28 454.78 384.31 475.27 C 359.03 489.90 331.00 499.91 302.03 503.87 C 295.37 504.71 288.69 505.60 281.96 505.35 C 258.82 504.43 235.89 500.82 213.22 496.20 C 211.15 495.63 208.78 495.79 206.97 494.56 C 208.59 494.48 210.21 494.36 211.83 494.43 C 227.44 496.53 243.39 496.60 258.98 494.32 C 292.42 490.63 325.14 479.56 353.61 461.58 C 381.35 444.53 405.09 421.29 423.64 394.60 C 445.50 362.92 459.59 325.99 464.68 287.86 C 472.36 232.53 461.02 174.67 432.35 126.66 C 408.60 86.46 372.85 53.36 330.60 33.38 C 326.98 31.78 323.29 30.30 319.88 28.25 Z" fill="#2d4475" opacity="1.00"/></g><g id="#ffffffff"><path d=" M 212.61 111.61 C 225.07 100.17 242.34 95.58 258.93 95.35 C 276.80 95.29 294.67 95.48 312.54 95.51 C 312.56 114.54 312.55 133.58 312.55 152.61 C 300.35 152.62 288.15 152.61 275.95 152.61 C 271.87 152.52 267.58 153.67 264.70 156.69 C 261.52 159.93 260.63 164.67 260.67 169.05 C 260.68 180.45 260.66 191.84 260.68 203.24 C 277.91 203.25 295.14 203.24 312.38 203.24 C 310.34 222.85 308.45 242.48 306.26 262.07 C 291.06 261.95 275.87 262.05 260.68 262.02 C 260.56 317.83 260.88 373.66 260.52 429.47 C 237.52 429.23 214.51 429.41 191.50 429.38 C 191.41 373.59 191.50 317.80 191.46 262.02 C 180.49 262.01 169.52 262.03 158.55 262.01 C 158.45 242.47 158.71 222.92 158.42 203.38 C 169.42 202.95 180.45 203.33 191.46 203.19 C 191.51 189.50 191.38 175.81 191.52 162.12 C 192.13 143.56 198.56 124.32 212.61 111.61 Z" fill="#ffffff" opacity="1.00"/></g></svg>