<?xml version="1.0" ?><!DOCTYPE svg  PUBLIC '-//W3C//DTD SVG 1.1//EN'  'http://www.w3.org/Graphics/SVG/1.1/DTD/svg11.dtd'><svg height="512pt" version="1.1" viewBox="0 0 512 512" width="512pt" xmlns="http://www.w3.org/2000/svg"><g id="#dc4e41ff"><path d=" M 206.92 13.73 C 240.75 9.66 275.61 12.85 307.81 24.19 C 314.64 26.38 321.45 28.62 328.27 30.82 L 328.80 31.28 C 330.59 32.88 332.50 34.35 334.65 35.44 C 389.75 62.50 432.50 112.44 452.76 170.19 C 469.43 217.33 471.47 269.44 458.79 317.78 C 443.08 378.57 402.96 432.91 348.63 464.65 C 322.49 480.09 293.12 490.03 263.00 493.83 C 248.45 496.29 233.64 496.31 218.95 495.48 C 211.59 495.01 204.46 492.58 197.05 492.73 C 171.36 487.53 146.04 479.10 123.34 465.77 C 78.77 440.36 43.39 399.73 23.22 352.65 C 6.22 313.28 -0.13 269.48 4.44 226.86 C 8.90 184.41 24.47 143.14 49.53 108.55 C 65.10 87.03 84.20 68.03 105.99 52.84 C 135.82 31.92 170.76 18.26 206.92 13.73 M 168.56 153.83 C 118.73 160.30 77.44 207.51 79.10 257.99 C 78.03 301.37 107.51 343.27 148.36 357.56 C 172.82 366.23 200.39 366.00 224.63 356.67 C 245.91 348.71 263.94 332.59 274.13 312.28 C 284.76 291.13 287.05 266.81 285.46 243.48 C 251.81 243.16 218.15 243.26 184.49 243.33 C 184.45 255.31 184.48 267.29 184.54 279.27 C 204.71 279.81 224.88 279.54 245.04 279.98 C 239.99 297.50 227.89 314.02 210.20 320.19 C 180.39 333.00 142.58 319.10 127.34 290.68 C 121.94 280.00 118.42 268.07 119.00 256.01 C 119.75 237.27 128.72 219.07 142.95 206.90 C 152.76 198.43 165.30 193.33 178.12 191.84 C 196.03 190.26 213.23 197.64 228.26 206.68 C 237.62 197.92 246.38 188.54 255.01 179.06 C 240.60 167.04 223.39 158.15 204.91 154.53 C 192.95 152.04 180.63 152.60 168.56 153.83 M 350.97 213.08 C 350.83 223.12 350.76 233.17 350.71 243.21 C 340.67 243.30 330.62 243.34 320.58 243.43 C 320.58 253.43 320.57 263.44 320.58 273.44 C 330.62 273.53 340.66 273.56 350.70 273.65 C 350.83 283.70 350.78 293.74 350.92 303.79 C 360.93 303.80 370.93 303.74 380.94 303.80 C 381.01 293.74 381.05 283.68 381.16 273.62 C 391.20 273.53 401.25 273.53 411.30 273.44 C 411.30 263.43 411.30 253.43 411.30 243.42 C 401.25 243.35 391.21 243.33 381.16 243.20 C 381.09 233.16 381.01 223.12 380.95 213.08 C 370.96 213.07 360.96 213.07 350.97 213.08 Z" fill="#dc4e41" opacity="1.00"/></g><g id="#c04539ff"><path d=" M 328.80 31.28 C 338.80 34.27 348.51 38.19 358.27 41.90 C 366.41 45.27 374.80 48.13 382.61 52.26 C 423.48 75.46 456.63 111.56 477.37 153.65 C 495.50 190.20 504.17 231.29 502.87 272.04 C 501.66 313.86 489.80 355.37 468.37 391.33 C 439.91 439.46 394.16 477.51 340.82 494.83 C 323.12 500.70 304.63 504.41 286.00 505.37 C 261.09 504.97 236.39 500.93 212.03 495.92 C 207.03 494.93 201.92 494.24 197.05 492.73 C 204.46 492.58 211.59 495.01 218.95 495.48 C 233.64 496.31 248.45 496.29 263.00 493.83 C 293.12 490.03 322.49 480.09 348.63 464.65 C 402.96 432.91 443.08 378.57 458.79 317.78 C 471.47 269.44 469.43 217.33 452.76 170.19 C 432.50 112.44 389.75 62.50 334.65 35.44 C 332.50 34.35 330.59 32.88 328.80 31.28 Z" fill="#c04539" opacity="1.00"/></g><g id="#ffffffff"><path d=" M 168.56 153.83 C 180.63 152.60 192.95 152.04 204.91 154.53 C 223.39 158.15 240.60 167.04 255.01 179.06 C 246.38 188.54 237.62 197.92 228.26 206.68 C 213.23 197.64 196.03 190.26 178.12 191.84 C 165.30 193.33 152.76 198.43 142.95 206.90 C 128.72 219.07 119.75 237.27 119.00 256.01 C 118.42 268.07 121.94 280.00 127.34 290.68 C 142.58 319.10 180.39 333.00 210.20 320.19 C 227.89 314.02 239.99 297.50 245.04 279.98 C 224.88 279.54 204.71 279.81 184.54 279.27 C 184.48 267.29 184.45 255.31 184.49 243.33 C 218.15 243.26 251.81 243.16 285.46 243.48 C 287.05 266.81 284.76 291.13 274.13 312.28 C 263.94 332.59 245.91 348.71 224.63 356.67 C 200.39 366.00 172.82 366.23 148.36 357.56 C 107.51 343.27 78.03 301.37 79.10 257.99 C 77.44 207.51 118.73 160.30 168.56 153.83 Z" fill="#ffffff" opacity="1.00"/><path d=" M 350.97 213.08 C 360.96 213.07 370.96 213.07 380.95 213.08 C 381.01 223.12 381.09 233.16 381.16 243.20 C 391.21 243.33 401.25 243.35 411.30 243.42 C 411.30 253.43 411.30 263.43 411.30 273.44 C 401.25 273.53 391.20 273.53 381.16 273.62 C 381.05 283.68 381.01 293.74 380.94 303.80 C 370.93 303.74 360.93 303.80 350.92 303.79 C 350.78 293.74 350.83 283.70 350.70 273.65 C 340.66 273.56 330.62 273.53 320.58 273.44 C 320.57 263.44 320.58 253.43 320.58 243.43 C 330.62 243.34 340.67 243.30 350.71 243.21 C 350.76 233.17 350.83 223.12 350.97 213.08 Z" fill="#ffffff" opacity="1.00"/></g></svg>