<?xml version="1.0" ?><!DOCTYPE svg  PUBLIC '-//W3C//DTD SVG 1.1//EN'  'http://www.w3.org/Graphics/SVG/1.1/DTD/svg11.dtd'><svg height="512pt" version="1.1" viewBox="0 0 512 512" width="512pt" xmlns="http://www.w3.org/2000/svg"><g id="#55aceeff"><path d=" M 172.75 20.73 C 204.47 11.60 238.20 9.70 270.78 14.84 C 289.72 17.75 308.04 23.85 325.92 30.43 C 326.96 31.24 327.97 32.11 329.14 32.74 C 358.33 46.26 384.57 66.06 405.80 90.21 C 442.75 131.84 464.34 186.48 466.72 242.02 C 468.67 283.07 460.49 324.61 442.68 361.67 C 428.54 391.28 408.30 417.97 383.55 439.51 C 355.45 464.02 321.36 481.71 284.95 489.94 C 261.76 495.08 237.71 497.87 214.05 494.56 C 205.87 494.06 197.92 491.95 189.82 490.98 C 146.30 482.16 105.86 459.81 74.54 428.44 C 51.62 405.54 33.42 377.97 21.26 347.95 C 3.94 305.43 -1.10 258.12 6.33 212.85 C 13.55 168.32 33.20 125.81 62.83 91.76 C 87.63 63.05 119.46 40.47 154.85 26.76 C 157.31 25.98 159.69 24.96 162.16 24.21 C 165.63 22.88 169.25 21.97 172.75 20.73 M 290.98 147.68 C 272.56 151.57 256.38 164.56 248.54 181.67 C 242.74 193.96 241.43 208.15 244.36 221.38 C 223.83 220.29 203.47 215.66 184.58 207.49 C 158.83 196.52 136.07 179.02 118.25 157.49 C 109.77 172.07 107.69 190.15 112.73 206.25 C 116.72 219.62 125.65 231.17 137.01 239.15 C 127.38 238.89 117.95 236.08 109.48 231.56 C 109.37 245.21 113.84 258.86 122.25 269.64 C 131.08 281.25 144.22 289.18 158.39 292.37 C 149.46 294.72 140.06 295.00 130.98 293.39 C 134.21 303.27 139.93 312.33 147.56 319.40 C 158.40 329.64 173.07 335.43 187.94 335.91 C 162.81 355.91 129.58 364.95 97.74 361.24 C 127.02 380.16 162.18 389.81 197.02 388.52 C 230.95 387.75 264.85 377.31 292.44 357.37 C 339.90 323.44 367.68 264.63 365.35 206.52 C 377.22 198.06 387.41 187.34 395.59 175.31 C 384.41 179.65 372.86 183.25 360.89 184.57 C 373.30 176.84 383.09 164.86 387.52 150.87 C 375.48 157.77 362.42 162.91 348.78 165.59 C 334.34 150.10 311.67 142.96 290.98 147.68 Z" fill="#55acee" opacity="1.00"/></g><g id="#4288bcff"><path d=" M 325.92 30.43 C 328.70 30.71 331.22 31.97 333.83 32.86 C 343.98 36.35 354.01 40.18 363.97 44.18 C 370.26 46.72 376.67 49.06 382.66 52.29 C 428.15 78.11 463.98 119.90 483.95 168.13 C 501.75 210.80 507.13 258.45 499.84 304.07 C 494.27 339.37 480.94 373.44 460.93 403.07 C 440.99 432.66 414.39 457.80 383.52 475.73 C 355.99 491.52 325.20 501.86 293.55 504.85 C 283.70 506.09 273.78 504.87 263.95 504.09 C 248.20 502.70 232.59 500.05 217.12 496.89 C 215.41 496.61 213.69 496.38 212.02 495.92 C 204.31 494.39 196.50 493.20 188.96 490.95 L 189.82 490.98 C 197.92 491.95 205.87 494.06 214.05 494.56 C 237.71 497.87 261.76 495.08 284.95 489.94 C 321.36 481.71 355.45 464.02 383.55 439.51 C 408.30 417.97 428.54 391.28 442.68 361.67 C 460.49 324.61 468.67 283.07 466.72 242.02 C 464.34 186.48 442.75 131.84 405.80 90.21 C 384.57 66.06 358.33 46.26 329.14 32.74 C 327.97 32.11 326.96 31.24 325.92 30.43 Z" fill="#4288bc" opacity="1.00"/></g><g id="#f1f2f2ff"><path d=" M 290.98 147.68 C 311.67 142.96 334.34 150.10 348.78 165.59 C 362.42 162.91 375.48 157.77 387.52 150.87 C 383.09 164.86 373.30 176.84 360.89 184.57 C 372.86 183.25 384.41 179.65 395.59 175.31 C 387.41 187.34 377.22 198.06 365.35 206.52 C 367.68 264.63 339.90 323.44 292.44 357.37 C 264.85 377.31 230.95 387.75 197.02 388.52 C 162.18 389.81 127.02 380.16 97.74 361.24 C 129.58 364.95 162.81 355.91 187.94 335.91 C 173.07 335.43 158.40 329.64 147.56 319.40 C 139.93 312.33 134.21 303.27 130.98 293.39 C 140.06 295.00 149.46 294.72 158.39 292.37 C 144.22 289.18 131.08 281.25 122.25 269.64 C 113.84 258.86 109.37 245.21 109.48 231.56 C 117.95 236.08 127.38 238.89 137.01 239.15 C 125.65 231.17 116.72 219.62 112.73 206.25 C 107.69 190.15 109.77 172.07 118.25 157.49 C 136.07 179.02 158.83 196.52 184.58 207.49 C 203.47 215.66 223.83 220.29 244.36 221.38 C 241.43 208.15 242.74 193.96 248.54 181.67 C 256.38 164.56 272.56 151.57 290.98 147.68 Z" fill="#f1f2f2" opacity="1.00"/></g></svg>