<?xml version="1.0" encoding="utf-8"?>
<!-- Generator: Adobe Illustrator 16.0.0, SVG Export Plug-In . SVG Version: 6.00 Build 0)  -->
<!DOCTYPE svg PUBLIC "-//W3C//DTD SVG 1.1//EN" "http://www.w3.org/Graphics/SVG/1.1/DTD/svg11.dtd">
<svg version="1.1" id="Layer_1" xmlns="http://www.w3.org/2000/svg" xmlns:xlink="http://www.w3.org/1999/xlink" x="0px" y="0px"
	 width="24px" height="24px" viewBox="0 0 24 24" enable-background="new 0 0 24 24" xml:space="preserve">
<path d="M12,0.5C5.648,0.5,0.5,5.649,0.5,12S5.648,23.5,12,23.5S23.5,18.351,23.5,12S18.352,0.5,12,0.5z M15.605,9.445l-1.574,0.18
	l-3.348,3.601c0,0-0.1,1.774,0.101,2.774C11.215,16,13,16,13,16v1H7v-1h0.85c0,0,0.863-0.415,0.863-0.796
	c0-0.381,0.033-2.145,0.033-2.145L5.38,8.897L4,8.676V8h5v1H7.85l2.32,3.219l2.122-2.594L10,9.489V8h5.803L15.605,9.445z
	 M18.382,17.299l-1.968-0.3l0.231-1.713l1.903,0.208L18.382,17.299z M18.452,14.452L17,14.22V6.701l3.11,0.417L18.452,14.452z"/>
</svg>
